<svg width="16" height="18" viewBox="0 0 16 18" fill="none" xmlns="http://www.w3.org/2000/svg">
    <path d="M2.66667 5.77778C2.66667 5.53232 2.86565 5.33333 3.11111 5.33333C3.35657 5.33333 3.55556 5.53232 3.55556 5.77778C3.55556 6.02324 3.35657 6.22222 3.11111 6.22222C2.86565 6.22222 2.66667 6.02324 2.66667 5.77778Z" fill="#D62F89"/>
    <path d="M3.11111 8.88889C2.86565 8.88889 2.66667 9.08787 2.66667 9.33333C2.66667 9.57879 2.86565 9.77778 3.11111 9.77778C3.35657 9.77778 3.55556 9.57879 3.55556 9.33333C3.55556 9.08787 3.35657 8.88889 3.11111 8.88889Z" fill="#D62F89"/>
    <path d="M2.66667 12.8889C2.66667 12.6434 2.86565 12.4444 3.11111 12.4444C3.35657 12.4444 3.55556 12.6434 3.55556 12.8889C3.55556 13.1343 3.35657 13.3333 3.11111 13.3333C2.86565 13.3333 2.66667 13.1343 2.66667 12.8889Z" fill="#D62F89"/>
    <path d="M5.77778 5.33333C5.53232 5.33333 5.33333 5.53232 5.33333 5.77778C5.33333 6.02324 5.53232 6.22222 5.77778 6.22222H12.8889C13.1343 6.22222 13.3333 6.02324 13.3333 5.77778C13.3333 5.53232 13.1343 5.33333 12.8889 5.33333H5.77778Z" fill="#D62F89"/>
    <path d="M5.33333 9.33333C5.33333 9.08787 5.53232 8.88889 5.77778 8.88889H12.8889C13.1343 8.88889 13.3333 9.08787 13.3333 9.33333C13.3333 9.57879 13.1343 9.77778 12.8889 9.77778H5.77778C5.53232 9.77778 5.33333 9.57879 5.33333 9.33333Z" fill="#D62F89"/>
    <path d="M5.77778 12.4444C5.53232 12.4444 5.33333 12.6434 5.33333 12.8889C5.33333 13.1343 5.53232 13.3333 5.77778 13.3333H12.8889C13.1343 13.3333 13.3333 13.1343 13.3333 12.8889C13.3333 12.6434 13.1343 12.4444 12.8889 12.4444H5.77778Z" fill="#D62F89"/>
    <path fill-rule="evenodd" clip-rule="evenodd" d="M0.888889 0C0.397969 0 0 0.397969 0 0.888889V16.8889C0 17.3798 0.39797 17.7778 0.888889 17.7778H15.1111C15.602 17.7778 16 17.3798 16 16.8889V0.888889C16 0.397969 15.602 0 15.1111 0H0.888889ZM15.1111 0.888889H0.888889V16.8889H15.1111V0.888889Z" fill="#D62F89"/>
</svg>
