<svg width="16" height="16" viewBox="0 0 16 16" fill="none" xmlns="http://www.w3.org/2000/svg">
    <path d="M7.78451 3.43041C8.07937 2.84092 8.92063 2.84092 9.21549 3.43041L10.2399 5.47838C10.3563 5.71116 10.5787 5.87275 10.8361 5.91155L13.1004 6.25294C13.7521 6.35121 14.0121 7.15129 13.5426 7.61388L11.9114 9.22098C11.726 9.40365 11.641 9.66511 11.6837 9.92188L12.0587 12.1808C12.1666 12.8311 11.486 13.3255 10.901 13.0219L8.86848 11.9672C8.63745 11.8473 8.36255 11.8473 8.13152 11.9672L6.09901 13.0219C5.51397 13.3255 4.83338 12.8311 4.94133 12.1808L5.31635 9.92188C5.35898 9.66511 5.27403 9.40365 5.08862 9.22098L3.45744 7.61388C2.98792 7.15129 3.24788 6.35121 3.89963 6.25294L6.16391 5.91155C6.42129 5.87275 6.64369 5.71116 6.76013 5.47838L7.78451 3.43041Z" fill="#F9A249"/>
</svg>
